<svg xmlns="http://www.w3.org/2000/svg" xmlns:xlink="http://www.w3.org/1999/xlink" width="24" height="24" viewBox="0 0 24 24">
    <defs>
        <path id="rwqkl83x9a" d="M15.502 9.491h-.794l-.276.274C15.407 10.902 16 12.376 16 13.991c0 3.59-2.91 6.5-6.5 6.5s-6.5-2.91-6.5-6.5 2.91-6.5 6.5-6.5c1.615 0 3.088.592 4.225 1.566l.276-.274v-.792L18.999 3l1.491 1.491-4.988 5zm-6.002 0c-2.486 0-4.5 2.014-4.5 4.5 0 2.485 2.014 4.5 4.5 4.5 2.485 0 4.5-2.015 4.5-4.5 0-2.486-2.015-4.5-4.5-4.5z"/>
    </defs>
    <g fill="none" fill-rule="evenodd">
        <mask id="zug14gbfkb" fill="#fff">
            <use xlink:href="#rwqkl83x9a"/>
        </mask>
        <g fill="#000" fill-opacity=".54" mask="url(#zug14gbfkb)">
            <path d="M0 0H24V24H0z"/>
        </g>
    </g>
</svg>
