<svg xmlns="http://www.w3.org/2000/svg" width="234" height="122" viewBox="0 0 234 122">
    <g fill="none">
        <path fill="#FFF" d="M101.824 -21.751L102.114 8.585 53.219 9.05 53.219 109.912 109.281 109.912 109.281 85.642 139.75 85.642 139.75 140.249 22.75 140.249 22.75 -21.001z" transform="rotate(90 81.25 59.25)"/>
        <path fill="#000" fill-opacity=".802" d="M74.875 120.862c2.968 0 5.12-.838 6.454-2.515 1.334-1.677 2.001-4.228 2.001-7.653l-.085-15.951v-.045c-.014-2.508-.667-4.482-1.959-5.922-1.291-1.44-3.343-2.161-6.154-2.161H64.75v34.247h10.125zm-1.242-6.234c-.142 0-.331-.007-.567-.022-.235-.014-.396-.021-.481-.021-.129 0-.214.007-.257.021V92.678c.4-.03.678-.043.835-.043.97 0 1.651.232 2.044.698.392.466.588 1.322.588 2.57V112.8c0 1.219-.72 1.828-2.162 1.828zm23.052 6.557c1.584.043 2.986-.18 4.206-.667 1.22-.487 2.187-1.175 2.9-2.063.714-.889 1.246-1.903 1.595-3.042.35-1.14.525-2.405.525-3.795V95.3c0-2.852-.767-5.063-2.302-6.632-1.534-1.57-3.885-2.376-7.053-2.419-3.082.043-5.39.85-6.925 2.419-1.534 1.57-2.3 3.78-2.3 6.632v16.318c0 1.39.174 2.655.524 3.795.35 1.139.88 2.153 1.594 3.042.714.888 1.68 1.576 2.9 2.063 1.221.488 2.666.71 4.336.667zm-.065-6.708c-.3 0-.56-.06-.78-.182-.222-.122-.397-.305-.525-.549-.129-.243-.232-.476-.31-.698-.08-.223-.133-.513-.161-.871-.029-.358-.047-.63-.054-.817-.007-.186-.01-.437-.01-.752V95.806c0-.15.014-.402.042-.753.029-.351.086-.616.172-.795.085-.18.192-.38.32-.602.13-.222.304-.384.525-.484.221-.1.482-.15.781-.15.214 0 .407.025.578.075.172.05.314.136.429.258.114.122.214.236.3.344.085.107.153.265.203.473.05.208.092.38.128.516.036.136.057.33.064.58.007.251.014.44.022.57.007.129.007.322 0 .58-.008.258-.011.43-.011.516v14.113c-.002.23-.005.417-.01.56-.008.18-.026.437-.054.774-.029.337-.079.606-.15.806-.072.201-.168.412-.29.635-.12.222-.285.387-.491.494-.207.108-.446.161-.718.161zm22.645 6.772c1.37 0 2.572-.179 3.607-.537 1.034-.358 1.876-.842 2.526-1.451.649-.61 1.173-1.369 1.573-2.28.4-.91.678-1.855.835-2.837.157-.982.235-2.075.235-3.278 0-.473-.007-.857-.021-1.15-.014-.294-.06-.732-.14-1.312-.078-.58-.217-1.118-.417-1.612-.2-.495-.46-1.047-.781-1.656s-.756-1.225-1.306-1.849c-.55-.623-1.195-1.236-1.937-1.838l-4.56-3.698c-1.412-1.146-2.119-2.207-2.119-3.182 0-.487.175-.885.525-1.193.35-.308.774-.462 1.273-.462.386 0 .735.15 1.05.452.313.3.477.644.492 1.031l.043 2.064h7.641c0-1.935-.214-3.572-.642-4.912-.428-1.34-1.07-2.386-1.926-3.139-.857-.752-1.834-1.29-2.933-1.612-1.099-.323-1.998-.484-2.697-.484h-1.327c-2.712 0-4.842.742-6.39 2.225s-2.322 3.744-2.322 6.783c0 2.795 1.284 5.303 3.853 7.524l3.19 2.774c1.155 1.003 1.986 1.788 2.493 2.354.507.566.885 1.164 1.134 1.795.25.63.375 1.405.375 2.322 0 .702-.16 1.268-.482 1.698-.32.43-.76.645-1.316.645-1.199 0-1.798-1.103-1.798-3.31v-3.075h-7.45v3.354c0 3.354.746 5.833 2.237 7.439 1.492 1.605 3.986 2.407 7.482 2.407zm20.076-.387v-13.565h3.06c1.528 0 2.816-.233 3.864-.699 1.05-.466 1.86-1.164 2.43-2.096.57-.932.974-1.996 1.21-3.193.235-1.196.353-2.633.353-4.31 0-1.95-.197-3.608-.589-4.977-.392-1.369-.967-2.44-1.723-3.214-.757-.774-1.627-1.333-2.612-1.677-.984-.344-2.133-.516-3.446-.516h-9.954v34.247h7.407zm.428-19.735h-.428V92.85h.834c.97 0 1.652.293 2.045.881.392.588.588 1.634.588 3.139 0 .688-.025 1.275-.075 1.763-.05.487-.146.885-.289 1.193-.142.308-.281.552-.417.73-.136.18-.342.309-.62.388-.279.079-.522.129-.729.15-.206.022-.51.033-.91.033zm29.194 19.735v-6.686h-7.749V86.615h-7.535v34.247h15.284zm9.095 0l.47-5.16h3.811l.535 5.16h7.278l-3.767-34.247H174.59l-3.853 34.247h7.32zm3.703-11.394h-2.697l1.006-16.425h.685l1.006 16.425zm20.782 11.781c1.37 0 2.572-.179 3.607-.537 1.035-.358 1.877-.842 2.526-1.451.65-.61 1.174-1.369 1.573-2.28.4-.91.678-1.855.835-2.837.157-.982.236-2.075.236-3.278 0-.473-.008-.857-.022-1.15-.014-.294-.06-.732-.139-1.312-.078-.58-.218-1.118-.417-1.612-.2-.495-.46-1.047-.782-1.656-.32-.609-.756-1.225-1.305-1.849-.55-.623-1.196-1.236-1.938-1.838l-4.56-3.698c-1.412-1.146-2.118-2.207-2.118-3.182 0-.487.174-.885.524-1.193.35-.308.774-.462 1.274-.462.385 0 .735.15 1.049.452.314.3.478.644.492 1.031l.043 2.064h7.642c0-1.935-.214-3.572-.642-4.912-.429-1.34-1.07-2.386-1.927-3.139-.856-.752-1.834-1.29-2.933-1.612-1.098-.323-1.997-.484-2.697-.484h-1.327c-2.711 0-4.841.742-6.39 2.225-1.548 1.483-2.322 3.744-2.322 6.783 0 2.795 1.284 5.303 3.853 7.524l3.19 2.774c1.155 1.003 1.987 1.788 2.493 2.354.507.566.885 1.164 1.135 1.795.25.63.374 1.405.374 2.322 0 .702-.16 1.268-.481 1.698-.321.43-.76.645-1.317.645-1.199 0-1.798-1.103-1.798-3.31v-3.075h-7.45v3.354c0 3.354.746 5.833 2.238 7.439 1.491 1.605 3.985 2.407 7.481 2.407zm20.162-.387V105.32h3.553v15.543h7.492V86.615h-7.492v12.233h-3.553V86.615h-7.493v34.247h7.493z"/>
    </g>
</svg>
